<svg width="51" height="51" viewBox="0 0 51 51" fill="none" xmlns="http://www.w3.org/2000/svg">
<path d="M6.375 14.375C6.375 10.6038 6.375 8.71815 7.54657 7.54657C8.71815 6.375 10.6038 6.375 14.375 6.375H36.625C40.3962 6.375 42.2819 6.375 43.4534 7.54657C44.625 8.71815 44.625 10.6038 44.625 14.375V36.625C44.625 40.3962 44.625 42.2819 43.4534 43.4534C42.2819 44.625 40.3962 44.625 36.625 44.625H14.375C10.6038 44.625 8.71815 44.625 7.54657 43.4534C6.375 42.2819 6.375 40.3962 6.375 36.625V14.375Z" stroke="white" stroke-width="2"/>
<path d="M25.5 17L25.5 34" stroke="white" stroke-width="2" stroke-linecap="square" stroke-linejoin="round"/>
<path d="M34 25.5L17 25.5" stroke="white" stroke-width="2" stroke-linecap="square" stroke-linejoin="round"/>
</svg>
