<svg width="28" height="28" viewBox="0 0 28 28" fill="none" xmlns="http://www.w3.org/2000/svg">
<path d="M22.5457 11.0462C22.5457 11.0462 21.9122 18.9037 21.5447 22.2136C21.3697 23.7944 20.3932 24.7207 18.7937 24.7499C15.7498 24.8047 12.7025 24.8082 9.65984 24.7441C8.121 24.7126 7.16084 23.7746 6.98934 22.2217C6.6195 18.8827 5.9895 11.0462 5.9895 11.0462" stroke="white" stroke-width="1.5" stroke-linecap="round" stroke-linejoin="round"/>
<path d="M24.1596 7.27965H4.37524" stroke="white" stroke-width="1.5" stroke-linecap="round" stroke-linejoin="round"/>
<path d="M20.3474 7.27965C19.4316 7.27965 18.6429 6.63215 18.4633 5.73499L18.1798 4.31632C18.0048 3.66182 17.4121 3.20915 16.7366 3.20915H11.7981C11.1226 3.20915 10.5299 3.66182 10.3549 4.31632L10.0714 5.73499C9.89176 6.63215 9.10309 7.27965 8.18726 7.27965" stroke="white" stroke-width="1.5" stroke-linecap="round" stroke-linejoin="round"/>
</svg>
