<svg width="51" height="51" viewBox="0 0 51 51" fill="none" xmlns="http://www.w3.org/2000/svg">
<path d="M33.4659 42.4265L33.3735 41.4308L33.4659 42.4265ZM36.434 41.5231L37.3918 41.8104L36.434 41.5231ZM34.0027 12.2264L33.3774 11.446L34.0027 12.2264ZM36.434 9.47694L35.4761 9.76433L36.434 9.47694ZM28.625 25.5C28.625 20.4465 30.9667 15.9406 34.628 13.0068L33.3774 11.446C29.2627 14.7431 26.625 19.8139 26.625 25.5H28.625ZM34.628 37.9932C30.9667 35.0594 28.625 30.5535 28.625 25.5H26.625C26.625 31.1861 29.2627 36.2569 33.3774 39.554L34.628 37.9932ZM33.3735 41.4308C32.8804 41.4766 32.3806 41.5 31.875 41.5V43.5C32.4424 43.5 33.0039 43.4737 33.5583 43.4223L33.3735 41.4308ZM31.875 41.5C23.0384 41.5 15.875 34.3366 15.875 25.5H13.875C13.875 35.4411 21.9339 43.5 31.875 43.5V41.5ZM15.875 25.5C15.875 16.6634 23.0384 9.5 31.875 9.5V7.5C21.9339 7.5 13.875 15.5589 13.875 25.5H15.875ZM31.875 9.5C32.3806 9.5 32.8804 9.52342 33.3735 9.56918L33.5583 7.57774C33.0039 7.52628 32.4424 7.5 31.875 7.5V9.5ZM33.3774 39.554C34.2771 40.2749 34.8688 40.7518 35.2252 41.1238C35.6308 41.5471 35.398 41.496 35.4761 41.2357L37.3918 41.8104C37.6637 40.9041 37.0903 40.1795 36.6693 39.7401C36.1992 39.2494 35.4784 38.6746 34.628 37.9932L33.3774 39.554ZM33.5583 43.4223C34.4462 43.3399 35.2357 43.2696 35.8171 43.1219C36.4003 42.9737 37.1381 42.6558 37.3918 41.8104L35.4761 41.2357C35.536 41.0363 35.7145 41.0844 35.3245 41.1835C34.9327 41.2831 34.3351 41.3416 33.3735 41.4308L33.5583 43.4223ZM34.628 13.0068C35.4784 12.3254 36.1992 11.7506 36.6693 11.2599C37.0903 10.8205 37.6637 10.0959 37.3918 9.18956L35.4761 9.76433C35.398 9.50397 35.6308 9.45294 35.2252 9.87623C34.8688 10.2482 34.2771 10.7251 33.3774 11.446L34.628 13.0068ZM33.3735 9.56918C34.3351 9.65843 34.9327 9.71695 35.3245 9.81651C35.7145 9.91564 35.536 9.9637 35.4761 9.76433L37.3918 9.18956C37.1381 8.34418 36.4003 8.02633 35.8171 7.87813C35.2357 7.73036 34.4462 7.66015 33.5583 7.57774L33.3735 9.56918Z" fill="#CCD2E3"/>
</svg>
